<svg width="72" height="72" viewBox="0 0 72 72" fill="none" xmlns="http://www.w3.org/2000/svg">
<rect width="72" height="72" fill="white"/>
<path fill-rule="evenodd" clip-rule="evenodd" d="M3.488 40.768C4.49067 41.8133 5.90933 42.336 7.744 42.336C9.184 42.336 10.3627 41.968 11.28 41.232C12.208 40.496 12.7413 39.4347 12.88 38.048H10.336C10.2293 38.7733 9.94667 39.3227 9.488 39.696C9.02933 40.0587 8.43733 40.24 7.712 40.24C6.77333 40.24 6.04267 39.9147 5.52 39.264C4.99733 38.6027 4.736 37.68 4.736 36.496V36.368C4.736 35.1947 5.00267 34.272 5.536 33.6C6.06933 32.928 6.78933 32.592 7.696 32.592C9.104 32.592 9.904 33.296 10.096 34.704H12.752C12.624 33.3387 12.1013 32.304 11.184 31.6C10.2773 30.896 9.10933 30.544 7.68 30.544C6.03733 30.544 4.67733 31.088 3.6 32.176C2.53333 33.264 2 34.6667 2 36.384V36.512C2 38.304 2.496 39.7227 3.488 40.768ZM18.2568 40.576C17.6061 40.576 17.0994 40.352 16.7367 39.904C16.3848 39.4453 16.2087 38.816 16.2087 38.016V37.888C16.2087 37.088 16.3901 36.4693 16.7528 36.032C17.1154 35.584 17.6167 35.36 18.2568 35.36C18.9074 35.36 19.4088 35.5893 19.7607 36.048C20.1234 36.496 20.3048 37.12 20.3048 37.92V38.032C20.3048 38.832 20.1234 39.456 19.7607 39.904C19.4088 40.352 18.9074 40.576 18.2568 40.576ZM15.0887 41.168C15.9207 41.9467 16.9714 42.336 18.2407 42.336C19.5208 42.336 20.5767 41.9413 21.4088 41.152C22.2407 40.3627 22.6567 39.3173 22.6567 38.016V37.888C22.6567 36.5973 22.2407 35.5627 21.4088 34.784C20.5874 33.9947 19.5368 33.6 18.2568 33.6C16.9768 33.6 15.9207 34 15.0887 34.8C14.2568 35.6 13.8407 36.6453 13.8407 37.936V38.064C13.8407 39.344 14.2568 40.3787 15.0887 41.168ZM23.0996 33.792L26.1556 42.16H28.7636L31.8036 33.792H29.5636L27.5796 39.776L25.5796 33.792H23.0996ZM33.1199 33.792V42.16H35.4239V33.792H33.1199ZM34.2559 32.656C34.6292 32.656 34.9439 32.5387 35.1999 32.304C35.4559 32.0587 35.5839 31.7547 35.5839 31.392C35.5839 31.0293 35.4559 30.7307 35.1999 30.496C34.9439 30.2507 34.6292 30.128 34.2559 30.128C33.8825 30.128 33.5679 30.2507 33.3119 30.496C33.0665 30.7307 32.9439 31.0293 32.9439 31.392C32.9439 31.7547 33.0665 32.0587 33.3119 32.304C33.5679 32.5387 33.8825 32.656 34.2559 32.656ZM38.0839 41.232C38.7665 41.968 39.6359 42.336 40.6919 42.336C41.2785 42.336 41.8172 42.1867 42.3079 41.888C42.7985 41.5893 43.1559 41.216 43.3799 40.768V42.16H45.6839V30H43.3799V35.04C42.8572 34.08 41.9772 33.6 40.7399 33.6C39.6625 33.6 38.7772 33.9947 38.0839 34.784C37.4012 35.5627 37.0599 36.624 37.0599 37.968V38.096C37.0599 39.44 37.4012 40.4853 38.0839 41.232ZM42.8839 39.888C42.5105 40.3147 42.0092 40.528 41.3799 40.528C40.7825 40.528 40.3079 40.32 39.9559 39.904C39.6039 39.4773 39.4279 38.8587 39.4279 38.048V37.92C39.4279 37.088 39.5985 36.4587 39.9399 36.032C40.2919 35.5947 40.7932 35.376 41.4439 35.376C42.0839 35.376 42.5745 35.5893 42.9159 36.016C43.2679 36.4427 43.4439 37.0667 43.4439 37.888V38.016C43.4439 38.8373 43.2572 39.4613 42.8839 39.888ZM47.724 38.576V39.076H48.224H52.32H52.82V38.576V36.736V36.236H52.32H48.224H47.724V36.736V38.576ZM55.2076 42.16V42.66H55.7076H58.2996H58.7996V42.16V30.72V30.22H58.2996H56.0276H55.8683L55.7384 30.3121L53.0984 32.1841L52.8876 32.3336V32.592V34.8V35.7253L53.6616 35.2182L55.2076 34.2053V42.16ZM55.7076 33.28L55.2076 33.6076L53.8876 34.4724L53.3876 34.8V34.2022V32.592L56.0276 30.72H57.7996H58.2996V31.22V41.66V42.16H57.7996H56.2076H55.7076V41.66V33.8778V33.28ZM61.3939 41.8641L61.3968 41.8664C62.236 42.5205 63.3377 42.82 64.6481 42.82C66.3031 42.82 67.6365 42.2734 68.5707 41.1331C69.502 39.9987 69.9321 38.424 69.9321 36.48V35.968C69.9321 34.1982 69.5201 32.7438 68.6343 31.6664C67.728 30.5641 66.407 30.044 64.7601 30.044C63.3142 30.044 62.106 30.4332 61.1923 31.2616C60.276 32.0924 59.8281 33.1929 59.8281 34.512C59.8281 35.7641 60.2189 36.8074 61.0418 37.5804L61.0445 37.583C61.578 38.0766 62.208 38.4034 62.9221 38.572H62.8561H60.4401H59.8745L59.9439 39.1334C60.0855 40.2781 60.5611 41.2054 61.3939 41.8641ZM63.3464 38.9739L63.2801 38.6422C63.5593 38.6862 63.8502 38.708 64.1521 38.708C64.9576 38.708 65.6617 38.5278 66.2459 38.1613C66.1524 38.5985 66.0171 38.9391 65.8501 39.1937C65.5622 39.6325 65.1583 39.852 64.5681 39.852C64.1522 39.852 63.884 39.7605 63.7115 39.6316C63.5456 39.5075 63.4132 39.3077 63.3464 38.9739ZM64.1521 38.208C65.0604 38.208 65.7934 37.9579 66.3511 37.4579C66.5531 37.2767 66.7321 37.0628 66.8881 36.816C66.881 37.1293 66.8612 37.4217 66.8287 37.6933C66.6165 39.4658 65.863 40.352 64.5681 40.352C63.5975 40.352 63.0268 39.9253 62.8561 39.072H60.9444H60.4401C60.4616 39.2452 60.4912 39.4119 60.5291 39.572C60.7174 40.368 61.1091 41.0013 61.7041 41.472C62.4295 42.0373 63.4108 42.32 64.6481 42.32C66.1841 42.32 67.3628 41.8187 68.1841 40.816C69.0161 39.8027 69.4321 38.3573 69.4321 36.48V35.968C69.4321 34.272 69.0375 32.944 68.2481 31.984C67.4588 31.024 66.2961 30.544 64.7601 30.544C63.4055 30.544 62.3281 30.9067 61.5281 31.632C60.7281 32.3573 60.3281 33.3173 60.3281 34.512C60.3281 35.6533 60.6801 36.5547 61.3841 37.216C62.0988 37.8773 63.0215 38.208 64.1521 38.208ZM65.7675 33.3299L65.7675 33.3299L65.7726 33.3353C66.027 33.6046 66.1801 33.9927 66.1801 34.56C66.1801 35.0061 66.0424 35.3373 65.7852 35.5958C65.5294 35.8428 65.1921 35.98 64.7281 35.98C64.271 35.98 63.9542 35.8375 63.7211 35.5826C63.4804 35.3194 63.3401 34.9577 63.3401 34.448C63.3401 33.9401 63.4794 33.5792 63.7185 33.3162C63.9656 33.0556 64.2865 32.916 64.7281 32.916C65.1942 32.916 65.5227 33.0628 65.7675 33.3299ZM64.7281 36.48C65.3041 36.48 65.7735 36.304 66.1361 35.952C66.4988 35.5893 66.6801 35.1253 66.6801 34.56C66.6801 33.8987 66.4988 33.376 66.1361 32.992C65.7841 32.608 65.3148 32.416 64.7281 32.416C64.1628 32.416 63.7041 32.6027 63.3521 32.976C63.0108 33.3493 62.8401 33.84 62.8401 34.448C62.8401 35.056 63.0108 35.5467 63.3521 35.92C63.6935 36.2933 64.1521 36.48 64.7281 36.48ZM48.224 38.576V38.076V37.236V36.736H48.724H51.82H52.32V37.236V38.076V38.576H51.82H48.724H48.224Z" fill="#222B45"/>
</svg>
