<svg xmlns="http://www.w3.org/2000/svg" xmlns:xlink="http://www.w3.org/1999/xlink" viewBox="0 0 65 65" fill="#fff" fill-rule="evenodd" stroke="#000" stroke-linecap="round" stroke-linejoin="round"><use xlink:href="#A" x=".5" y=".5"/><symbol id="A" overflow="visible"><g stroke="none" fill-rule="nonzero"><path d="M17.315 17.424l-4.138-4.14.016 29.903.05 1.396c.02.66.145 1.4.345 2.17l32.775 11.56 8.2-3.63.007-.012-37.257-37.247z" fill="#00c4b3"/><path d="M13.589 46.753h.003c-.003-.012-.008-.026-.014-.04.007.015.007.03.01.04zm40.966 7.93l-8.2 3.63-32.77-11.56c.625 2.404 2.012 5.106 3.502 6.58l10.7 10.637 23.788.03 2.98-9.317z" fill="#22d3c5"/><g fill="#0075c9"><path d="M13.289 13.285L.546 32.53c-1.058 1.13-.53 3.462 1.173 5.18l7.356 7.416 4.624 1.63c-.2-.768-.326-1.5-.345-2.17l-.05-1.396-.015-29.903z"/><path d="M46.633 13.67c-.77-.195-1.508-.318-2.173-.337l-1.478-.054-29.805.007 41.392 41.386 3.636-8.2-11.57-32.8z"/></g><path d="M46.595 13.663c.013.005.027.008.038.01v-.004c-.013-.003-.025-.003-.038-.008zm6.615 3.518c-1.505-1.515-4.17-2.9-6.577-3.508l11.57 32.797-3.64 8.2 8.882-2.838.02-24.352-10.256-10.3z" fill="#00a8e1"/><path d="M45.011 9.075l-7.4-7.36C35.885.018 33.553-.512 32.433.544l-19.244 12.74 29.805-.007 1.478.054c.665.02 1.404.142 2.173.337l-1.632-4.595zm-31.833 4.2" fill="#00c4b3"/></g></symbol></svg>