<svg width="887" height="254" viewBox="0 0 887 254" fill="none" xmlns="http://www.w3.org/2000/svg">
<path d="M3.07996 3.20001H31.592V81.392H79.688V104H3.07996V3.20001Z" stroke="black" stroke-width="5"/>
<path d="M132.877 3.20001H161.389V104H132.877V3.20001Z" stroke="black" stroke-width="5"/>
<path d="M291.116 84.416H248.492L240.572 104H211.484L255.98 3.20001H284.06L328.7 104H299.036L291.116 84.416ZM282.764 63.392L269.804 31.136L256.844 63.392H282.764Z" stroke="black" stroke-width="5"/>
<path d="M469.697 104L469.409 50.576L443.489 94.064H430.817L405.041 52.016V104H378.689V3.20001H402.161L437.585 61.376L472.145 3.20001H495.617L495.905 104H469.697Z" stroke="black" stroke-width="5"/>
<path d="M94.088 249L93.8 195.576L67.88 239.064H55.208L29.432 197.016V249H3.07996V148.2H26.552L61.976 206.376L96.536 148.2H120.008L120.296 249H94.088Z" stroke="black" stroke-width="5"/>
<path d="M228.889 251.016C213.913 251.016 202.249 246.936 193.897 238.776C185.641 230.616 181.513 219.048 181.513 204.072V148.2H210.025V203.208C210.025 219.336 216.409 227.4 229.177 227.4C241.849 227.4 248.185 219.336 248.185 203.208V148.2H276.265V204.072C276.265 219.048 272.089 230.616 263.737 238.776C255.481 246.936 243.865 251.016 228.889 251.016Z" stroke="black" stroke-width="5"/>
<path d="M381.55 222.216H365.998V249H337.486V148.2H383.566C392.686 148.2 400.606 149.736 407.326 152.808C414.046 155.784 419.23 160.104 422.878 165.768C426.526 171.336 428.35 177.912 428.35 185.496C428.35 192.792 426.622 199.176 423.166 204.648C419.806 210.024 414.958 214.248 408.622 217.32L430.366 249H399.838L381.55 222.216ZM399.55 185.496C399.55 180.792 398.062 177.144 395.086 174.552C392.11 171.96 387.694 170.664 381.838 170.664H365.998V200.184H381.838C387.694 200.184 392.11 198.936 395.086 196.44C398.062 193.848 399.55 190.2 399.55 185.496Z" stroke="black" stroke-width="5"/>
<path d="M530.05 222.216H514.498V249H485.986V148.2H532.066C541.186 148.2 549.106 149.736 555.826 152.808C562.546 155.784 567.73 160.104 571.378 165.768C575.026 171.336 576.85 177.912 576.85 185.496C576.85 192.792 575.122 199.176 571.666 204.648C568.306 210.024 563.458 214.248 557.122 217.32L578.866 249H548.338L530.05 222.216ZM548.05 185.496C548.05 180.792 546.562 177.144 543.586 174.552C540.61 171.96 536.194 170.664 530.338 170.664H514.498V200.184H530.338C536.194 200.184 540.61 198.936 543.586 196.44C546.562 193.848 548.05 190.2 548.05 185.496Z" stroke="black" stroke-width="5"/>
<path d="M702.022 229.416H659.398L651.478 249H622.39L666.886 148.2H694.966L739.606 249H709.942L702.022 229.416ZM693.67 208.392L680.71 176.136L667.75 208.392H693.67Z" stroke="black" stroke-width="5"/>
<path d="M843.596 212.856V249H815.084V212.424L776.636 148.2H806.732L830.636 188.232L854.54 148.2H882.188L843.596 212.856Z" stroke="black" stroke-width="5"/>
</svg>
