<svg width="967" height="580" viewBox="0 0 967 580" fill="none" xmlns="http://www.w3.org/2000/svg">
<path d="M227.014 561.016C212.038 561.016 200.374 556.936 192.022 548.776C183.766 540.616 179.638 529.048 179.638 514.072V458.2H208.15V513.208C208.15 529.336 214.534 537.4 227.302 537.4C239.974 537.4 246.31 529.336 246.31 513.208V458.2H274.39V514.072C274.39 529.048 270.214 540.616 261.862 548.776C253.606 556.936 241.99 561.016 227.014 561.016ZM379.675 532.216H364.123V559H335.611V458.2H381.691C390.811 458.2 398.731 459.736 405.451 462.808C412.171 465.784 417.355 470.104 421.003 475.768C424.651 481.336 426.475 487.912 426.475 495.496C426.475 502.792 424.747 509.176 421.291 514.648C417.931 520.024 413.083 524.248 406.747 527.32L428.491 559H397.963L379.675 532.216ZM397.675 495.496C397.675 490.792 396.187 487.144 393.211 484.552C390.235 481.96 385.819 480.664 379.963 480.664H364.123V510.184H379.963C385.819 510.184 390.235 508.936 393.211 506.44C396.187 503.848 397.675 500.2 397.675 495.496ZM528.175 532.216H512.623V559H484.111V458.2H530.191C539.311 458.2 547.231 459.736 553.951 462.808C560.671 465.784 565.855 470.104 569.503 475.768C573.151 481.336 574.975 487.912 574.975 495.496C574.975 502.792 573.247 509.176 569.791 514.648C566.431 520.024 561.583 524.248 555.247 527.32L576.991 559H546.463L528.175 532.216ZM546.175 495.496C546.175 490.792 544.687 487.144 541.711 484.552C538.735 481.96 534.319 480.664 528.463 480.664H512.623V510.184H528.463C534.319 510.184 538.735 508.936 541.711 506.44C544.687 503.848 546.175 500.2 546.175 495.496ZM700.147 539.416H657.523L649.603 559H620.515L665.011 458.2H693.091L737.731 559H708.067L700.147 539.416ZM691.795 518.392L678.835 486.136L665.875 518.392H691.795ZM841.721 522.856V559H813.209V522.424L774.761 458.2H804.857L828.761 498.232L852.665 458.2H880.313L841.721 522.856Z" fill="#141414"/>
<path d="M35.1347 23.2H63.6467V101.392H111.743V124H35.1347V23.2ZM54.6816 168.2H83.1936V269H54.6816V168.2ZM90.0144 394.416H47.3904L39.4704 414H10.3824L54.8784 313.2H82.9584L127.598 414H97.9344L90.0144 394.416ZM81.6624 373.392L68.7024 341.136L55.7424 373.392H81.6624ZM101.393 559L101.105 505.576L75.1847 549.064H62.5127L36.7367 507.016V559H10.3847V458.2H33.8567L69.2807 516.376L103.841 458.2H127.313L127.601 559H101.393Z" fill="#141414"/>
</svg>
