<?xml version="1.0" encoding="UTF-8" standalone="no"?>
<!DOCTYPE svg PUBLIC "-//W3C//DTD SVG 1.1//EN" "http://www.w3.org/Graphics/SVG/1.1/DTD/svg11.dtd">
<svg version="1.1" xmlns="http://www.w3.org/2000/svg" xmlns:xlink="http://www.w3.org/1999/xlink" preserveAspectRatio="xMidYMid meet" viewBox="0 0 640 640" width="640" height="640"><defs><path d="M0 0L640 0L640 640L0 640L0 0Z" id="b19iJF6NlP"></path><path d="M552.8 287.67C552.8 304.25 552.8 335.77 552.8 352.34C552.8 358.32 558.13 363.16 564.72 363.16C571.3 363.16 576.61 358.31 576.61 352.34C576.61 335.78 576.61 304.26 576.61 287.66C576.61 281.7 571.29 276.84 564.71 276.84C558.13 276.84 552.8 281.7 552.8 287.67Z" id="af9pp0juf"></path><path d="M155.84 211.27C155.84 265.62 155.85 374.4 155.86 428.73C155.86 446.66 168.71 461.2 184.56 461.2C200.41 461.2 213.27 446.65 213.27 428.73C213.27 407.41 213.27 377.69 213.27 346.19C229.82 346.19 377.97 346.19 422.13 346.19C422.13 377.7 422.13 407.41 422.13 428.74C422.13 446.66 434.99 461.2 450.84 461.2C466.7 461.2 479.54 446.65 479.54 428.73C479.54 374.38 479.54 265.6 479.54 211.27C479.54 193.34 466.69 178.8 450.84 178.8C434.99 178.8 422.13 193.33 422.13 211.27C422.13 232.59 422.13 262.3 422.13 293.81C377.95 293.81 229.82 293.81 213.27 293.81C213.27 262.3 213.27 232.59 213.27 211.26C213.27 193.33 200.42 178.8 184.56 178.8C168.71 178.8 155.84 193.35 155.84 211.27Z" id="b7K6Pq2AqN"></path><path d="M514.75 222.18C502.81 222.18 493.11 231.84 493.11 243.8C493.11 281.45 493.11 358.55 493.11 396.2C493.11 408.15 502.81 417.84 514.76 417.84C515.7 417.84 516.64 417.84 517.57 417.84C529.52 417.84 539.22 408.18 539.22 396.22C539.22 358.58 539.22 281.47 539.21 243.82C539.22 231.86 529.52 222.18 517.56 222.18C516.63 222.18 515.7 222.18 514.75 222.18Z" id="eoqmhvPGm"></path><path d="M119.29 222.18C107.34 222.18 97.65 231.84 97.65 243.8C97.65 281.45 97.65 358.55 97.65 396.2C97.65 408.16 107.34 417.84 119.29 417.84C120.23 417.84 121.17 417.84 122.1 417.84C134.05 417.84 143.74 408.18 143.74 396.22C143.74 358.58 143.74 281.47 143.74 243.82C143.75 231.86 134.06 222.18 122.11 222.18C121.17 222.18 120.23 222.18 119.29 222.18Z" id="d9xpnsRks"></path><path d="M63.41 287.67C63.41 304.25 63.41 335.77 63.41 352.34C63.41 358.32 68.74 363.16 75.33 363.16C81.91 363.16 87.22 358.31 87.22 352.34C87.22 335.78 87.22 304.26 87.22 287.66C87.22 281.7 81.9 276.84 75.32 276.84C68.74 276.84 63.41 281.7 63.41 287.67Z" id="euKspOSHV"></path></defs><g><g><use xlink:href="#b19iJF6NlP" opacity="1" fill="#665df5" fill-opacity="1"></use></g><g><use xlink:href="#af9pp0juf" opacity="1" fill="#ffffff" fill-opacity="1"></use><g><use xlink:href="#af9pp0juf" opacity="1" fill-opacity="0" stroke="#000000" stroke-width="1" stroke-opacity="0"></use></g></g><g><use xlink:href="#b7K6Pq2AqN" opacity="1" fill="#ffffff" fill-opacity="1"></use><g><use xlink:href="#b7K6Pq2AqN" opacity="1" fill-opacity="0" stroke="#000000" stroke-width="1" stroke-opacity="0"></use></g></g><g><use xlink:href="#eoqmhvPGm" opacity="1" fill="#ffffff" fill-opacity="1"></use><g><use xlink:href="#eoqmhvPGm" opacity="1" fill-opacity="0" stroke="#000000" stroke-width="1" stroke-opacity="0"></use></g></g><g><use xlink:href="#d9xpnsRks" opacity="1" fill="#ffffff" fill-opacity="1"></use><g><use xlink:href="#d9xpnsRks" opacity="1" fill-opacity="0" stroke="#000000" stroke-width="1" stroke-opacity="0"></use></g></g><g><use xlink:href="#euKspOSHV" opacity="1" fill="#ffffff" fill-opacity="1"></use><g><use xlink:href="#euKspOSHV" opacity="1" fill-opacity="0" stroke="#000000" stroke-width="1" stroke-opacity="0"></use></g></g></g></svg>